<svg width="128" height="30" viewBox="0 0 128 30" fill="none" xmlns="http://www.w3.org/2000/svg">
<path d="M48.0834 7.95184H45.4269V0.148176H47.7194C49.3481 0.148176 50.4192 0.86491 50.4192 2.18351C50.4192 2.7739 50.1403 3.41712 49.4765 3.77549V3.80765C50.6654 4.21885 50.8474 5.22044 50.8474 5.6638C50.8474 7.29828 49.5722 7.95184 48.0834 7.95184ZM47.7626 1.39212H46.8199V3.31145H47.8594C48.3518 3.31145 49.0378 3.19544 49.0378 2.34087C49.0366 1.5713 48.3506 1.39212 47.7626 1.39212ZM47.9866 4.51404H46.8187V6.70789H47.9971C48.5863 6.70789 49.4438 6.59188 49.4543 5.59029C49.4543 4.65073 48.64 4.51404 47.9866 4.51404Z" fill="black"/>
<path d="M56.3099 5.03092L58.1311 7.95184H56.4604L54.8643 5.2101H53.889V7.95184H52.4959V0.148176H54.7675C56.0637 0.148176 56.5887 0.296346 57.0495 0.601877C57.7461 1.06592 58.1416 1.85731 58.1416 2.71072C58.1416 3.82832 57.4451 4.7564 56.3099 5.03092ZM56.2025 1.66664C55.8805 1.45529 55.4745 1.39212 54.9063 1.39212H53.889V4.10284H55.0673C56.3204 4.10284 56.7602 3.41712 56.7602 2.74289C56.7602 2.28919 56.556 1.89866 56.2025 1.66664Z" fill="black"/>
<path d="M59.7586 7.95184V0.148176H61.1937V7.95184H59.7586Z" fill="black"/>
<path d="M65.9923 1.39212V7.95184H64.5573V1.39212H62.8224V0.148176H67.7178V1.39212H65.9923Z" fill="black"/>
<path d="M69.3454 7.95184V0.148176H70.7804V7.95184H69.3454Z" fill="black"/>
<path d="M75.0226 8.1C73.255 8.1 72.4511 7.11909 72.366 5.69596H73.801C73.8757 6.6137 74.5395 6.89856 75.0121 6.89856C75.6654 6.89856 76.1904 6.39202 76.1904 5.76947C76.1904 4.93673 75.4939 4.72538 74.4975 4.35668C73.8769 4.14533 72.5048 3.69163 72.5048 2.21567C72.5048 0.832743 73.7684 0 75.0436 0C75.7832 0 76.5323 0.274516 76.9931 0.812066C77.3781 1.26577 77.454 1.71947 77.4855 2.13067H76.0609C75.9968 1.72981 75.7506 1.2026 75.0004 1.2026C74.4112 1.2026 73.9399 1.62413 73.9399 2.18351C73.9399 2.90024 74.4439 3.05875 75.7284 3.55495C77.0783 4.07182 77.6243 4.83106 77.6243 5.76947C77.6255 6.95024 76.8006 8.1 75.0226 8.1Z" fill="black"/>
<path d="M83.8918 7.95184V4.58756H80.6251V7.95184H79.19V0.148176H80.6251V3.34361H83.8918V0.148176H85.3269V7.95184H83.8918Z" fill="black"/>
<path d="M86.728 12.6765H88.426V29.4923H86.8935V29.6738H99.4V23.3511H99.3132C99.0111 29.9483 91.3139 29.4923 91.3139 29.4923L91.3567 29.4992V21.0092C92.8603 21.0092 94.9044 20.7944 95.2065 24.6524H95.2597V17.2328H95.2065C94.8187 20.7933 92.8232 20.8185 91.3567 20.8185V12.6432V12.7087C94.2458 12.7087 97.4103 12.1447 98.6384 18.294H98.7078V12.5054H86.728V12.6765Z" fill="black"/>
<path d="M87.0774 12.6742V12.5054H83.5135V12.6742H85.09V25.2381C85.0321 28.392 82.7253 29.8381 80.9462 29.7737C77.6822 29.6566 77.3071 26.5911 77.3071 25.9594V12.6742H78.8686V12.5054H72.7953V12.6742H74.4065L74.4019 24.4215C74.4019 27.5708 76.0142 30 80.7229 30C83.8804 30 85.3296 27.3974 85.2972 25.2393V12.6742H87.0774Z" fill="black"/>
<path d="M71.5754 22.6114H72.8996V22.4414H67.4548V22.6114H68.8531V26.4165C68.8531 28.1773 68.088 29.7852 65.6642 29.8323C63.9211 29.8564 62.9638 28.8767 62.4534 27.5203C61.9013 26.0685 61.6975 24.5456 61.6975 21.0942C61.6975 18.8809 61.9013 15.5961 62.6663 14.1202C63.0275 13.4299 63.6872 12.209 65.6214 12.2159C68.0475 12.2251 69.4596 14.1914 70.5025 18.309H70.5545V12H70.499C69.9885 13.214 68.066 12.6202 68.066 12.6202C67.0034 12.2871 66.5358 12.0494 65.5994 12.0494C62.6015 12.0494 58.4763 15.0724 58.4763 21.309C58.4763 26.4028 61.5586 30 65.7684 30C67.5115 30 68.5753 28.74 70.0626 28.74C70.5302 28.74 71.3879 29.0306 71.5372 29.768H71.5731L71.5754 22.6114Z" fill="black"/>
<path d="M53.7144 20.9977C53.7144 22.2129 53.6183 26.0949 52.5963 28.0245C51.9573 29.2638 50.8508 29.7864 49.5509 29.7864C48.2523 29.7864 47.1446 29.2626 46.5068 28.0245C45.4847 26.0949 45.3887 22.2117 45.3887 20.9977C45.3887 19.7825 45.4847 16.0188 46.5068 14.018C47.1249 12.7787 48.2523 12.2561 49.5509 12.2561C50.8496 12.2561 51.9782 12.7799 52.5963 14.018C53.6183 16.0188 53.7144 19.7825 53.7144 20.9977ZM57.0039 20.9977C57.0039 15.6145 53.1079 12.0884 49.5521 12.0884C45.9963 12.0884 42.1003 15.6145 42.1003 20.9977C42.1003 26.3809 46.1248 29.9541 49.5521 29.9541C52.9794 29.9541 57.0039 26.3809 57.0039 20.9977Z" fill="black"/>
<path d="M40.496 12.5077V12.6719H42.1015L38.1498 25.794L33.3764 12.6719H34.7561V12.5077H29V12.6719H30.58L37.0526 29.7668H37.1452L42.2971 12.6719H43.6745V12.5077H40.496Z" fill="black"/>
</svg>
